<svg xmlns="http://www.w3.org/2000/svg" xmlns:xlink="http://www.w3.org/1999/xlink" aria-hidden="true" role="img" class="iconify iconify--ph" width="32" height="32" preserveAspectRatio="xMidYMid meet" viewBox="0 0 256 256"><path fill="currentColor" d="m235.9 94l-100-56.7a15.9 15.9 0 0 0-15.8 0L20.1 94a8 8 0 0 0-4.1 7v64a8 8 0 0 0 4.1 7l100 56.7a15.9 15.9 0 0 0 15.8 0l100-56.7a8 8 0 0 0 4.1-7v-64a8 8 0 0 0-4.1-7ZM224 151.3L191.8 133l32.2-18.3Zm-48.4-27.5L136 101.3V55.7l79.8 45.3Zm-47.6 27L96.6 133l31.4-17.8l31.4 17.8Zm-8-95.1v45.6l-39.6 22.5L40.2 101Zm-88 59L64.2 133L32 151.3Zm48.4 27.5l39.6 22.5v45.6L40.2 165Zm55.6 68.1v-45.6l39.6-22.5l40.2 22.8Z"></path></svg>