<svg xmlns="http://www.w3.org/2000/svg" xmlns:xlink="http://www.w3.org/1999/xlink" aria-hidden="true" role="img" class="iconify iconify--ph" width="32" height="32" preserveAspectRatio="xMidYMid meet" viewBox="0 0 256 256"><path fill="currentColor" d="M100 80a12 12 0 1 1-12-12a12 12 0 0 1 12 12Zm128-36v168a16 16 0 0 1-16 16H44a16 16 0 0 1-16-16V44a16 16 0 0 1 16-16h168a16 16 0 0 1 16 16Zm-16 168V44H44v168ZM88 104a8 8 0 0 0-8 8v64a8 8 0 0 0 16 0v-64a8 8 0 0 0-8-8Zm60 0a36 36 0 0 0-20.2 6.2A8 8 0 0 0 112 112v64a8 8 0 0 0 16 0v-36a20 20 0 0 1 40 0v36a8 8 0 0 0 16 0v-36a36 36 0 0 0-36-36Z"></path></svg>